<svg xmlns="http://www.w3.org/2000/svg" viewBox="0 0 64 64" width="64" height="64" shape-rendering="crispEdges">
  <rect width="64" height="64" fill="#1A1A1A" />
  <rect x="3" y="3" width="58" height="58" fill="#2E2E2E" />
  <rect x="6" y="18" width="40" height="8" fill="#5A5A5A" />
  <rect x="6" y="26" width="20" height="12" fill="#3B3B3B" />
  <rect x="26" y="24" width="12" height="16" fill="#00d9ff" />
  <rect x="38" y="22" width="10" height="18" fill="#5A5A5A" />
  <rect x="48" y="20" width="10" height="22" fill="#ff375e" />
  <rect x="58" y="20" width="4" height="22" fill="#ff7b2f" />
  <rect x="12" y="38" width="14" height="12" fill="#5A5A5A" />
  <rect x="16" y="42" width="10" height="10" fill="#ff7b2f" />
  <rect x="8" y="8" width="48" height="3" fill="#5A5A5A" />
  <rect x="8" y="53" width="48" height="3" fill="#5A5A5A" />
  <rect x="10" y="10" width="44" height="2" fill="#3B3B3B" />
  <rect x="10" y="52" width="44" height="2" fill="#3B3B3B" />
  <rect x="34" y="20" width="6" height="4" fill="#ff7b2f" />
</svg>
