<svg xmlns="http://www.w3.org/2000/svg" viewBox="0 0 64 64" width="64" height="64" shape-rendering="crispEdges">
  <rect width="64" height="64" fill="#1A1A1A" />
  <rect x="3" y="3" width="58" height="58" fill="#2E2E2E" />
  <rect x="10" y="18" width="6" height="28" fill="#5A5A5A" />
  <rect x="16" y="20" width="10" height="24" fill="#3B3B3B" />
  <rect x="26" y="18" width="6" height="28" fill="#5A5A5A" />
  <rect x="32" y="16" width="6" height="32" fill="#00d9ff" />
  <rect x="38" y="20" width="8" height="24" fill="#5A5A5A" />
  <rect x="46" y="22" width="12" height="20" fill="#ff375e" />
  <rect x="14" y="44" width="14" height="8" fill="#ff7b2f" />
  <rect x="8" y="8" width="48" height="3" fill="#5A5A5A" />
  <rect x="8" y="53" width="48" height="3" fill="#5A5A5A" />
  <rect x="10" y="10" width="44" height="2" fill="#3B3B3B" />
  <rect x="10" y="52" width="44" height="2" fill="#3B3B3B" />
  <rect x="42" y="18" width="4" height="6" fill="#00d9ff" />
  <rect x="46" y="34" width="4" height="6" fill="#ff7b2f" />
</svg>
